<svg width="304" height="44" viewBox="0 0 304 44" fill="none" xmlns="http://www.w3.org/2000/svg">
<path d="M166.367 0.811387L168.267 2.65763L170.224 0.661896L171.247 1.66101L172.271 2.66261L173.088 1.91085C173.556 1.42998 174.162 0.929418 174.26 0.929418C174.358 0.929418 174.298 2.62275 174.26 4.71316V8.64982H170.335H166.367V0.811387Z" fill="#A68358"/>
<path d="M17.1251 43.1479C10.058 41.6854 5.21072 38.0527 2.11765 31.8985C0.761302 29.2002 0.190738 26.7286 0.0305786 22.8392C-0.19965 17.2706 0.863906 12.9652 3.43396 9.08337C7.81331 2.4658 15.1406 -0.723395 23.9543 0.153633C32.4378 0.99827 38.6389 5.89667 41.3816 13.9145C42.285 16.5555 42.5703 18.9649 42.4327 22.7645C42.1924 29.4543 40.203 33.969 35.6259 38.2246C33.4287 40.2677 30.2756 41.9594 27.1025 42.7941C24.5024 43.4768 19.565 43.6537 17.1251 43.1479ZM25.2556 35.5561C27.2926 34.9233 28.6515 34.0712 30.183 32.4591C35.1404 27.2393 35.2481 16.3288 30.3907 10.9769C28.1285 8.4829 25.3257 7.3916 21.1916 7.3916C17.2101 7.3916 14.6 8.45301 12.2327 11.0293C9.73521 13.7501 8.6141 17.024 8.61661 21.5935C8.61661 24.8823 9.02201 26.7485 10.3383 29.5216C12.8558 34.8286 19.2522 37.4173 25.2556 35.5561ZM98.4558 43.1255C94.4418 42.3705 90.6481 40.462 88.2882 38.0128C86.1336 35.7779 84.547 31.9808 84.537 29.0407L84.5345 27.8946L86.2237 27.7351C87.1521 27.6479 88.8988 27.5757 90.1025 27.5757L92.2922 27.5732V28.4353C92.2922 30.6876 94.4594 33.9715 96.8768 35.3817C99.0965 36.6773 102.58 37.2105 105.48 36.6998C108.145 36.2313 109.92 35.2771 110.873 33.8021C111.524 32.7955 111.589 32.509 111.509 31.0066C111.434 29.559 111.321 29.2276 110.678 28.5474C109.224 27.0051 107.705 26.5218 100.175 25.1938C98.1105 24.83 95.633 24.3093 94.6696 24.0352C91.1986 23.051 88.4384 21.0951 86.9519 18.5687C85.4904 16.0846 85.1876 11.692 86.2637 8.57758C87.5925 4.73311 90.9809 1.89274 95.7606 0.619557C98.5409 -0.122927 105.07 -0.110465 107.918 0.641984C111.106 1.48413 113.313 2.70748 115.155 4.6484C117.4 7.01787 118.538 9.61906 118.961 13.3439L119.124 14.794L118.316 14.9535C117.87 15.0432 116.111 15.1154 114.409 15.1154H111.311V14.5199C111.311 14.1911 111.078 13.1695 110.791 12.2476C110.102 10.0227 108.158 7.97712 105.931 7.13497C103.779 6.32023 99.5519 6.30528 97.5049 7.10756C93.591 8.63738 92.4774 13.4685 95.5554 15.5589C96.7516 16.3712 99.0489 16.9941 104.054 17.8586C109.589 18.8179 111.727 19.3984 113.884 20.5271C117.335 22.331 119.086 24.8848 119.602 28.8638C120.493 35.743 116.689 40.8308 109.184 42.7991C106.546 43.4917 101.259 43.6512 98.4558 43.1255ZM240.564 43.3996C240.427 43.3572 239.476 43.128 238.45 42.8938C230.692 41.1148 225.227 35.4091 223.295 27.0749C222.992 25.7618 222.862 24.1324 222.862 21.5935C222.864 18.5338 222.959 17.6145 223.493 15.5988C225.855 6.63916 232.904 0.774032 242.191 0.044006C244.431 -0.132894 248.983 0.245824 251.075 0.781508C256.438 2.15934 260.792 6.09101 262.686 11.2734C263.392 13.2069 264.11 16.7947 263.843 17.0613C263.685 17.2183 256.152 17.602 255.927 17.465C255.842 17.4126 255.707 16.8745 255.622 16.2665C255.339 14.216 254.223 11.9188 252.809 10.4762C250.482 8.10419 247.852 7.26453 243.28 7.43894C240.655 7.5411 240.357 7.60587 238.6 8.47044C235.454 10.0177 233.64 12.1455 232.361 15.7881C231.651 17.8063 231.588 18.2498 231.573 21.3443C231.555 25.2386 231.828 26.604 233.197 29.4668C236.08 35.5038 243.773 38.1598 250.096 35.3045C252.804 34.0811 255.274 31.2283 256.077 28.3879L256.235 27.8323L250.777 27.765L245.319 27.6978L245.249 24.6456L245.179 21.5935H254.571H263.963V32.19V42.7841L260.397 42.7169L256.831 42.6471L256.761 39.8441C256.721 38.3018 256.608 37.0461 256.51 37.0536C256.41 37.061 255.992 37.5942 255.579 38.2371C253.522 41.4412 248.535 43.5466 243.112 43.4992C241.848 43.4893 240.702 43.4444 240.564 43.3996ZM282.639 43.1255C278.597 42.3656 274.831 40.4645 272.429 37.9705C270.417 35.88 268.732 31.759 268.72 28.9037L268.717 27.8697L271.032 27.7003C272.306 27.6081 274.013 27.5707 274.828 27.6156L276.307 27.6978L276.62 29.2201C277.033 31.2457 277.686 32.4417 279.145 33.8395C280.952 35.5711 282.749 36.346 286.255 36.9041C288.414 37.2504 292.941 36.0968 294.325 34.8485C295.847 33.4782 296.305 30.6528 295.271 28.9884C294.228 27.3066 292.569 26.6937 285.734 25.4529C279.556 24.3292 277.484 23.7711 275.562 22.7022C272.333 20.9083 270.517 18.2946 269.954 14.642C268.915 7.90984 273.094 2.25153 280.399 0.507438C283.054 -0.127908 289.218 -0.0606358 292.083 0.632016C297.421 1.92015 300.987 5.1218 302.471 9.95043C302.756 10.8798 303.062 12.3473 303.152 13.2144L303.314 14.7915L302.501 14.9535C302.053 15.0432 300.306 15.1154 298.62 15.1154H295.552L295.386 13.7924C295.036 10.9969 293.317 8.6025 290.859 7.4813C286.993 5.71977 281.535 6.26542 279.388 8.6299C277.621 10.5783 277.504 13.3838 279.125 14.9958C280.301 16.1693 282.088 16.7399 287.684 17.7415C290.396 18.2249 293.437 18.8428 294.44 19.1144C300.794 20.8236 304.01 24.7428 304 30.7624C303.99 36.5851 300.066 41.0675 293.492 42.7717C290.719 43.4893 285.489 43.6612 282.639 43.1255ZM48.1659 42.6047C48.0733 42.515 47.9982 33.0397 47.9982 21.5511V0.664405H56.7294C61.5342 0.664405 66.6042 0.781505 67.9981 0.923524C75.5731 1.6984 80.1602 5.16913 81.4189 11.0866C82.7778 17.4724 80.2828 23.3401 75.0551 26.0484C71.7168 27.7775 69.8624 28.1039 62.5752 28.2534L56.2564 28.3805V35.5761V42.7717H52.295C50.1153 42.7717 48.256 42.6969 48.1659 42.6047ZM66.2188 21.3393C69.0766 21.0403 70.7008 20.3751 71.9971 18.9748C73.1657 17.7116 73.5211 16.6104 73.5211 14.2309C73.5236 11.0343 71.9195 8.90398 68.7839 7.9522C67.6577 7.60837 66.3414 7.52615 61.887 7.52116L56.3815 7.51618L56.314 14.2434C56.2539 20.3477 56.2865 21.0005 56.6743 21.282C57.1999 21.6657 62.8004 21.6981 66.2188 21.3393ZM125.826 21.723V0.664405H129.955H134.084L134.094 10.07L134.104 19.4756L136.158 17.3429C137.287 16.1718 140.067 13.2567 142.334 10.8648C144.602 8.47543 147.717 5.19903 149.259 3.587L152.059 0.654438L156.884 0.721708L161.706 0.788984L157.354 5.39836C154.959 7.93476 151.103 11.9935 148.783 14.4178L144.564 18.8303L148.628 24.0103C150.86 26.8606 154.049 30.9293 155.713 33.0546C157.374 35.1774 159.712 38.1399 160.908 39.6398C162.107 41.1397 163.027 42.4577 162.96 42.5674C162.89 42.6795 160.7 42.7717 158.095 42.7717H153.358L152.747 42.0865C152.137 41.3988 148.728 37.1632 142.217 29.0033C140.29 26.589 138.598 24.6082 138.458 24.5983C138.318 24.5908 137.277 25.5077 136.146 26.6389L134.091 28.6969L134.026 35.6708L133.959 42.6471L129.892 42.7144L125.826 42.7841V21.723ZM166.538 42.6122C166.443 42.5175 166.366 35.9 166.366 27.9046V13.3713H170.372H174.379L174.314 28.0092L174.249 42.6471L170.48 42.7169C168.408 42.7542 166.634 42.7069 166.538 42.6122ZM181.553 42.6122C181.458 42.5175 181.381 33.0372 181.381 21.5461V0.651946L185.565 0.721708L189.749 0.788984L191.275 2.9068C192.116 4.07285 193.876 6.537 195.184 8.38822C204.148 21.0503 209.226 28.0715 209.426 28.0715C209.566 28.0715 209.659 22.62 209.659 14.368V0.664405H213.412H217.166V21.718V42.7717H213.941H210.712L204.138 33.7398C200.52 28.7716 196.378 23.0834 194.929 21.0952C193.483 19.1069 191.688 16.6403 190.945 15.6137C190.202 14.5872 189.491 13.7077 189.369 13.6628C189.236 13.6155 189.116 19.6177 189.078 28.1139L189.013 42.6471L185.37 42.7169C183.368 42.7542 181.648 42.7069 181.553 42.6122Z" fill="black"/>
<path d="M17.1251 43.1479C10.058 41.6854 5.21072 38.0527 2.11765 31.8985C0.761302 29.2002 0.190738 26.7286 0.0305786 22.8392C-0.19965 17.2706 0.863906 12.9652 3.43396 9.08337C7.81331 2.4658 15.1406 -0.723395 23.9543 0.153633C32.4378 0.99827 38.6389 5.89667 41.3816 13.9145C42.285 16.5555 42.5703 18.9649 42.4327 22.7645C42.1924 29.4543 40.203 33.969 35.6259 38.2246C33.4287 40.2677 30.2756 41.9594 27.1025 42.7941C24.5024 43.4768 19.565 43.6537 17.1251 43.1479ZM25.2556 35.5561C27.2926 34.9233 28.6515 34.0712 30.183 32.4591C35.1404 27.2393 35.2481 16.3288 30.3907 10.9769C28.1285 8.4829 25.3257 7.3916 21.1916 7.3916C17.2101 7.3916 14.6 8.45301 12.2327 11.0293C9.73521 13.7501 8.6141 17.024 8.61661 21.5935C8.61661 24.8823 9.02201 26.7485 10.3383 29.5216C12.8558 34.8286 19.2522 37.4173 25.2556 35.5561ZM98.4558 43.1255C94.4418 42.3705 90.6481 40.462 88.2882 38.0128C86.1336 35.7779 84.547 31.9808 84.537 29.0407L84.5345 27.8946L86.2237 27.7351C87.1521 27.6479 88.8988 27.5757 90.1025 27.5757L92.2922 27.5732V28.4353C92.2922 30.6876 94.4594 33.9715 96.8768 35.3817C99.0965 36.6773 102.58 37.2105 105.48 36.6998C108.145 36.2313 109.92 35.2771 110.873 33.8021C111.524 32.7955 111.589 32.509 111.509 31.0066C111.434 29.559 111.321 29.2276 110.678 28.5474C109.224 27.0051 107.705 26.5218 100.175 25.1938C98.1105 24.83 95.633 24.3093 94.6696 24.0352C91.1986 23.051 88.4384 21.0951 86.9519 18.5687C85.4904 16.0846 85.1876 11.692 86.2637 8.57758C87.5925 4.73311 90.9809 1.89274 95.7606 0.619557C98.5409 -0.122927 105.07 -0.110465 107.918 0.641984C111.106 1.48413 113.313 2.70748 115.155 4.6484C117.4 7.01787 118.538 9.61906 118.961 13.3439L119.124 14.794L118.316 14.9535C117.87 15.0432 116.111 15.1154 114.409 15.1154H111.311V14.5199C111.311 14.1911 111.078 13.1695 110.791 12.2476C110.102 10.0227 108.158 7.97712 105.931 7.13497C103.779 6.32023 99.5519 6.30528 97.5049 7.10756C93.591 8.63738 92.4774 13.4685 95.5554 15.5589C96.7516 16.3712 99.0489 16.9941 104.054 17.8586C109.589 18.8179 111.727 19.3984 113.884 20.5271C117.335 22.331 119.086 24.8848 119.602 28.8638C120.493 35.743 116.689 40.8308 109.184 42.7991C106.546 43.4917 101.259 43.6512 98.4558 43.1255ZM240.564 43.3996C240.427 43.3572 239.476 43.128 238.45 42.8938C230.692 41.1148 225.227 35.4091 223.295 27.0749C222.992 25.7618 222.862 24.1324 222.862 21.5935C222.864 18.5338 222.959 17.6145 223.493 15.5988C225.855 6.63916 232.904 0.774032 242.191 0.044006C244.431 -0.132894 248.983 0.245824 251.075 0.781508C256.438 2.15934 260.792 6.09101 262.686 11.2734C263.392 13.2069 264.11 16.7947 263.843 17.0613C263.685 17.2183 256.152 17.602 255.927 17.465C255.842 17.4126 255.707 16.8745 255.622 16.2665C255.339 14.216 254.223 11.9188 252.809 10.4762C250.482 8.10419 247.852 7.26453 243.28 7.43894C240.655 7.5411 240.357 7.60587 238.6 8.47044C235.454 10.0177 233.64 12.1455 232.361 15.7881C231.651 17.8063 231.588 18.2498 231.573 21.3443C231.555 25.2386 231.828 26.604 233.197 29.4668C236.08 35.5038 243.773 38.1598 250.096 35.3045C252.804 34.0811 255.274 31.2283 256.077 28.3879L256.235 27.8323L250.777 27.765L245.319 27.6978L245.249 24.6456L245.179 21.5935H254.571H263.963V32.19V42.7841L260.397 42.7169L256.831 42.6471L256.761 39.8441C256.721 38.3018 256.608 37.0461 256.51 37.0536C256.41 37.061 255.992 37.5942 255.579 38.2371C253.522 41.4412 248.535 43.5466 243.112 43.4992C241.848 43.4893 240.702 43.4444 240.564 43.3996ZM282.639 43.1255C278.597 42.3656 274.831 40.4645 272.429 37.9705C270.417 35.88 268.732 31.759 268.72 28.9037L268.717 27.8697L271.032 27.7003C272.306 27.6081 274.013 27.5707 274.828 27.6156L276.307 27.6978L276.62 29.2201C277.033 31.2457 277.686 32.4417 279.145 33.8395C280.952 35.5711 282.749 36.346 286.255 36.9041C288.414 37.2504 292.941 36.0968 294.325 34.8485C295.847 33.4782 296.305 30.6528 295.271 28.9884C294.228 27.3066 292.569 26.6937 285.734 25.4529C279.556 24.3292 277.484 23.7711 275.562 22.7022C272.333 20.9083 270.517 18.2946 269.954 14.642C268.915 7.90984 273.094 2.25153 280.399 0.507438C283.054 -0.127908 289.218 -0.0606358 292.083 0.632016C297.421 1.92015 300.987 5.1218 302.471 9.95043C302.756 10.8798 303.062 12.3473 303.152 13.2144L303.314 14.7915L302.501 14.9535C302.053 15.0432 300.306 15.1154 298.62 15.1154H295.552L295.386 13.7924C295.036 10.9969 293.317 8.6025 290.859 7.4813C286.993 5.71977 281.535 6.26542 279.388 8.6299C277.621 10.5783 277.504 13.3838 279.125 14.9958C280.301 16.1693 282.088 16.7399 287.684 17.7415C290.396 18.2249 293.437 18.8428 294.44 19.1144C300.794 20.8236 304.01 24.7428 304 30.7624C303.99 36.5851 300.066 41.0675 293.492 42.7717C290.719 43.4893 285.489 43.6612 282.639 43.1255ZM48.1659 42.6047C48.0733 42.515 47.9982 33.0397 47.9982 21.5511V0.664405H56.7294C61.5342 0.664405 66.6042 0.781505 67.9981 0.923524C75.5731 1.6984 80.1602 5.16913 81.4189 11.0866C82.7778 17.4724 80.2828 23.3401 75.0551 26.0484C71.7168 27.7775 69.8624 28.1039 62.5752 28.2534L56.2564 28.3805V35.5761V42.7717H52.295C50.1153 42.7717 48.256 42.6969 48.1659 42.6047ZM66.2188 21.3393C69.0766 21.0403 70.7008 20.3751 71.9971 18.9748C73.1657 17.7116 73.5211 16.6104 73.5211 14.2309C73.5236 11.0343 71.9195 8.90398 68.7839 7.9522C67.6577 7.60837 66.3414 7.52615 61.887 7.52116L56.3815 7.51618L56.314 14.2434C56.2539 20.3477 56.2865 21.0005 56.6743 21.282C57.1999 21.6657 62.8004 21.6981 66.2188 21.3393ZM125.826 21.723V0.664405H129.955H134.084L134.094 10.07L134.104 19.4756L136.158 17.3429C137.287 16.1718 140.067 13.2567 142.334 10.8648C144.602 8.47543 147.717 5.19903 149.259 3.587L152.059 0.654438L156.884 0.721708L161.706 0.788984L157.354 5.39836C154.959 7.93476 151.103 11.9935 148.783 14.4178L144.564 18.8303L148.628 24.0103C150.86 26.8606 154.049 30.9293 155.713 33.0546C157.374 35.1774 159.712 38.1399 160.908 39.6398C162.107 41.1397 163.027 42.4577 162.96 42.5674C162.89 42.6795 160.7 42.7717 158.095 42.7717H153.358L152.747 42.0865C152.137 41.3988 148.728 37.1632 142.217 29.0033C140.29 26.589 138.598 24.6082 138.458 24.5983C138.318 24.5908 137.277 25.5077 136.146 26.6389L134.091 28.6969L134.026 35.6708L133.959 42.6471L129.892 42.7144L125.826 42.7841V21.723ZM166.538 42.6122C166.443 42.5175 166.366 35.9 166.366 27.9046V13.3713H170.372H174.379L174.314 28.0092L174.249 42.6471L170.48 42.7169C168.408 42.7542 166.634 42.7069 166.538 42.6122ZM181.553 42.6122C181.458 42.5175 181.381 33.0372 181.381 21.5461V0.651946L185.565 0.721708L189.749 0.788984L191.275 2.9068C192.116 4.07285 193.876 6.537 195.184 8.38822C204.148 21.0503 209.226 28.0715 209.426 28.0715C209.566 28.0715 209.659 22.62 209.659 14.368V0.664405H213.412H217.166V21.718V42.7717H213.941H210.712L204.138 33.7398C200.52 28.7716 196.378 23.0834 194.929 21.0952C193.483 19.1069 191.688 16.6403 190.945 15.6137C190.202 14.5872 189.491 13.7077 189.369 13.6628C189.236 13.6155 189.116 19.6177 189.078 28.1139L189.013 42.6471L185.37 42.7169C183.368 42.7542 181.648 42.7069 181.553 42.6122Z" fill="black"/>
</svg>
