<svg width="1230" height="376" viewBox="0 0 1230 376" fill="none" xmlns="http://www.w3.org/2000/svg">
<path d="M1156.76 284.904L1156.5 375.154L578.92 375.404C261.25 375.544 1.03 375.354 0.669998 374.984C0.299998 374.624 0 333.894 0 284.484V194.654H1157.01L1156.76 284.904ZM559.72 353.044C560.12 353.434 588.58 353.604 622.97 353.414C683.5 353.074 685.72 352.994 692.5 350.914C717.22 343.354 730.65 331.174 738.36 309.304C742.24 298.304 742.92 281.744 740.06 267.874C734.79 242.344 719.91 226.404 693.97 218.514C686.59 216.264 685.7 216.234 623.38 215.894L560.26 215.554L559.64 217.854C558.77 221.114 558.85 352.164 559.72 353.044ZM962 215.654V353.704L995.5 353.154L996 330.154C996.28 317.504 996.86 306.594 997.31 305.904C997.93 304.944 1005.54 304.654 1029.81 304.674C1047.24 304.674 1061.97 305.014 1062.55 305.424C1063.12 305.824 1066.62 311.324 1070.33 317.654C1074.04 323.984 1080.38 334.554 1084.41 341.154L1091.76 353.154L1109.59 353.424C1119.41 353.574 1128.05 353.464 1128.8 353.174C1129.87 352.764 1129.64 351.734 1127.73 348.404C1121.49 337.504 1117.74 331.204 1110.35 319.154C1101.55 304.804 1100.89 303.444 1101.84 301.924C1102.2 301.344 1105.36 299.194 1108.86 297.154C1117.21 292.264 1122.3 286.884 1126.24 278.774C1129.32 272.424 1129.45 271.654 1129.42 260.154C1129.4 251.254 1128.95 246.994 1127.67 243.654C1124.92 236.484 1119.4 229.254 1113.74 225.414C1110.54 223.254 1108.13 221.564 1105.53 220.254C1096.43 215.684 1085.03 215.684 1029.98 215.674L1025.75 215.664L962 215.654ZM812.5 352.974C813.6 353.224 841.32 353.474 874.11 353.534L933.71 353.654L934.25 340.404C934.55 333.114 934.39 326.384 933.89 325.454C933.05 323.884 928.49 323.724 876.17 323.454L819.35 323.154L813.43 320.134C806.17 316.424 801 309.574 801 303.644C801 301.124 801.53 299.664 802.58 299.264C803.45 298.924 829.33 298.654 860.08 298.654C896.65 298.654 916.02 298.304 916.07 297.654C916.11 297.104 916.14 291.484 916.14 285.154C916.14 278.824 916.11 272.754 916.07 271.654C916 269.684 915.3 269.654 860.75 269.644C830.36 269.634 804.52 269.364 803.32 269.044C802.12 268.724 800.9 267.844 800.62 267.094C799.6 264.444 803.1 256.974 807.28 252.874C808.67 251.514 809.75 250.414 810.99 249.524C816.32 245.654 824.46 245.654 871.62 245.644H874.88C904.92 245.634 930.54 245.344 931.81 245.004C934.09 244.394 934.12 244.214 933.92 231.274C933.81 224.054 933.28 217.594 932.74 216.904C931.18 214.914 818.77 215.144 810.26 217.154C798.95 219.824 786.65 226.484 780.72 233.154C773.78 240.964 767.96 251.954 765.89 261.154C763.87 270.104 764.17 300.134 766.37 309.154C769.99 324.034 778.39 336.714 789.27 343.754C794.25 346.964 805.35 351.374 812.5 352.974ZM308 353.654C318.25 354.584 410.42 354.624 422.5 353.694C435.95 352.664 444.87 350.214 451.32 345.774C456.7 342.074 462.32 335.904 464.88 330.894C467.65 325.454 469.27 315.364 468.51 308.224C466.51 289.364 458.65 278.974 441.71 272.794L434.5 270.174L389 269.654C339.81 269.084 338.41 268.934 334.63 263.534C332.74 260.834 332.5 254.844 334.14 251.254C336.65 245.744 336.73 245.744 400.1 245.284C432.22 245.054 458.61 244.814 458.75 244.754C458.89 244.704 459 238.134 459 230.154V215.654L410.25 215.514C333.68 215.304 332.72 215.364 320.8 220.554C302.58 228.494 294 248.414 299.56 269.864C302.46 281.064 307.6 286.954 319.5 292.714C330.31 297.944 337.02 298.564 383.78 298.634C424.96 298.704 426.51 298.904 431.61 304.964C433.78 307.544 434.13 308.774 433.73 312.354C433.15 317.484 431.95 319.094 426.57 321.974C422.55 324.124 421.74 324.164 362.5 324.654L302.5 325.154V353.154L308 353.654ZM93.46 352.404C93.82 353.334 98.16 353.654 110.46 353.654H126.98L127.24 304.014C127.48 257.514 127.61 254.304 129.29 253.264C130.81 252.324 131.82 252.934 135.79 257.174C144.18 266.124 177.26 302.804 188.99 316.154C221.17 352.794 223.04 353.864 253.58 353.424L272.5 353.154V216.154H238.5L238 266.654C237.54 313.004 237.36 317.154 235.83 317.154C234.91 317.154 229.51 311.934 223.83 305.564C155.55 228.924 151.18 224.334 141.95 219.524L135.5 216.154H93.5L93.24 283.654C93.1 320.774 93.2 351.714 93.46 352.404ZM672.68 322.584C661.4 324.124 596.76 324.014 595.2 322.454C594.31 321.564 594 311.654 594 284.064C594 251.064 594.18 246.804 595.58 246.264C596.45 245.924 614.36 245.654 635.37 245.654C678.44 245.654 681.6 246.044 690.96 252.424C702.05 260.004 706.53 269.644 706.39 285.654C706.32 293.994 705.94 295.954 703.32 301.654C697.87 313.474 687.49 320.564 672.68 322.584ZM38.75 353.904C44.66 354.084 50.91 354.324 52.62 354.444C54.34 354.554 57.16 354.374 58.88 354.034L62 353.404V215.654H28V353.584L38.75 353.904ZM494.5 216.154L493.99 353.654H528.01L527.5 216.154H494.5ZM1085.78 273.194C1081.94 274.794 1077.49 274.984 1042.5 275.064L1039.66 275.074C1002.3 275.154 997.93 275.164 996.94 273.344C996.79 273.064 996.72 272.734 996.62 272.344C995.66 268.764 995.92 250.994 996.98 248.224L997.95 245.654L1040.23 245.674C1079.55 245.694 1082.79 245.834 1086.67 247.594C1091.59 249.824 1093.98 253.084 1094.71 258.564C1095.49 264.334 1091.54 270.794 1085.78 273.194ZM1001.06 160.224C1002.59 162.074 1002.11 162.494 999.35 161.744C997.61 161.264 997.45 160.924 998.51 159.944C999.54 158.994 1000.09 159.054 1001.06 160.224Z" fill="#0B0202"/>
<path fill-rule="evenodd" clip-rule="evenodd" d="M559.64 217.854C558.77 221.114 558.85 352.164 559.72 353.044C560.12 353.434 588.58 353.604 622.97 353.414C683.5 353.074 685.72 352.994 692.5 350.914C717.22 343.354 730.65 331.174 738.36 309.304C742.24 298.304 742.92 281.744 740.06 267.874C734.79 242.344 719.91 226.404 693.97 218.514C686.59 216.264 685.7 216.234 623.38 215.894L560.26 215.554L559.64 217.854ZM1025.75 215.664L962 215.654V353.704L995.5 353.154L996 330.154C996.28 317.504 996.86 306.594 997.31 305.904C997.93 304.944 1005.54 304.654 1029.81 304.674C1047.24 304.674 1061.97 305.014 1062.55 305.424C1063.12 305.824 1066.62 311.324 1070.33 317.654C1074.04 323.984 1080.38 334.554 1084.41 341.154L1091.76 353.154L1109.59 353.424C1119.41 353.574 1128.05 353.464 1128.8 353.174C1129.87 352.764 1129.64 351.734 1127.73 348.404C1121.49 337.504 1117.74 331.204 1110.35 319.154C1101.55 304.804 1100.89 303.444 1101.84 301.924C1102.2 301.344 1105.36 299.194 1108.86 297.154C1117.21 292.264 1122.3 286.884 1126.24 278.774C1129.32 272.424 1129.45 271.654 1129.42 260.154C1129.4 251.254 1128.95 246.994 1127.67 243.654C1124.92 236.484 1119.4 229.254 1113.74 225.414C1113.4 225.182 1113.06 224.955 1112.73 224.734L1112.68 224.696C1109.99 222.876 1107.83 221.415 1105.53 220.254C1096.43 215.686 1085.04 215.684 1030.05 215.674H1029.98L1025.75 215.664ZM789.27 343.754C794.25 346.964 805.35 351.374 812.5 352.974C813.6 353.224 841.32 353.474 874.11 353.534L933.71 353.654L934.25 340.404C934.55 333.114 934.39 326.384 933.89 325.454C933.05 323.884 928.49 323.724 876.17 323.454L819.35 323.154L813.43 320.134C806.17 316.424 801 309.574 801 303.644C801 301.124 801.53 299.664 802.58 299.264C803.45 298.924 829.33 298.654 860.08 298.654C896.65 298.654 916.02 298.304 916.07 297.654C916.11 297.104 916.14 291.484 916.14 285.154C916.14 278.824 916.11 272.754 916.07 271.654C916 269.684 915.3 269.654 860.75 269.644C830.36 269.634 804.52 269.364 803.32 269.044C802.12 268.724 800.9 267.844 800.62 267.094C799.6 264.444 803.1 256.974 807.28 252.874L807.544 252.615L807.72 252.443C808.905 251.279 809.884 250.318 810.99 249.524C816.318 245.656 824.453 245.654 871.558 245.644H871.62H874.88C904.92 245.634 930.54 245.344 931.81 245.004C934.09 244.394 934.12 244.214 933.92 231.274C933.81 224.054 933.28 217.594 932.74 216.904C931.18 214.914 818.77 215.144 810.26 217.154C798.95 219.824 786.65 226.484 780.72 233.154C773.78 240.964 767.96 251.954 765.89 261.154C763.87 270.104 764.17 300.134 766.37 309.154C769.99 324.034 778.39 336.714 789.27 343.754ZM302.5 353.154L308 353.654C318.25 354.584 410.42 354.624 422.5 353.694C435.95 352.664 444.87 350.214 451.32 345.774C456.7 342.074 462.32 335.904 464.88 330.894C467.65 325.454 469.27 315.364 468.51 308.224C466.51 289.364 458.65 278.974 441.71 272.794L434.5 270.174L389 269.654C339.81 269.084 338.41 268.934 334.63 263.534C332.74 260.834 332.5 254.844 334.14 251.254C336.65 245.745 336.73 245.744 400.08 245.284L400.1 245.284C432.22 245.054 458.61 244.814 458.75 244.754C458.89 244.704 459 238.134 459 230.154V215.654L410.25 215.514C333.68 215.304 332.72 215.364 320.8 220.554C302.58 228.494 294 248.414 299.56 269.864C302.46 281.064 307.6 286.954 319.5 292.714C330.31 297.944 337.02 298.564 383.78 298.634C424.96 298.704 426.51 298.904 431.61 304.964C433.78 307.544 434.13 308.774 433.73 312.354C433.15 317.484 431.95 319.094 426.57 321.974C422.55 324.124 421.74 324.164 362.5 324.654L302.5 325.154V353.154ZM93.24 283.654C93.1 320.774 93.2 351.714 93.46 352.404C93.82 353.334 98.16 353.654 110.46 353.654H126.98L127.24 304.014C127.48 257.514 127.61 254.304 129.29 253.264C130.81 252.324 131.82 252.934 135.79 257.174C144.18 266.124 177.26 302.804 188.99 316.154C221.17 352.794 223.04 353.864 253.58 353.424L272.5 353.154V216.154H238.5L238 266.654C237.54 313.004 237.36 317.154 235.83 317.154C234.91 317.154 229.51 311.934 223.83 305.564C155.55 228.924 151.18 224.334 141.95 219.524L135.5 216.154H93.5L93.24 283.654ZM703.32 301.654C697.87 313.474 687.49 320.564 672.68 322.584C661.4 324.124 596.76 324.014 595.2 322.454C594.31 321.564 594 311.654 594 284.064C594 251.064 594.18 246.804 595.58 246.264C596.45 245.924 614.36 245.654 635.37 245.654C678.44 245.654 681.6 246.044 690.96 252.424C702.05 260.004 706.53 269.644 706.39 285.654C706.32 293.994 705.94 295.954 703.32 301.654ZM28 353.584L38.75 353.904C44.66 354.084 50.91 354.324 52.62 354.444C54.34 354.554 57.16 354.374 58.88 354.034L62 353.404V215.654H28V353.584ZM527.5 216.154H494.5L493.99 353.654H528.01L527.5 216.154ZM1094.71 258.564C1095.49 264.334 1091.54 270.794 1085.78 273.194C1081.94 274.794 1077.49 274.984 1042.5 275.064L1039.66 275.074L1039.62 275.074C1002.3 275.154 997.93 275.163 996.94 273.344C996.811 273.103 996.741 272.825 996.66 272.503C996.647 272.451 996.634 272.398 996.62 272.344C995.66 268.764 995.92 250.994 996.98 248.224L997.95 245.654L1040.23 245.674C1079.55 245.694 1082.79 245.834 1086.67 247.594C1091.59 249.824 1093.98 253.084 1094.71 258.564ZM1200.5 245.154L1200.15 235.284C1199.69 222.604 1201.33 222.664 1205.26 235.474C1208.07 244.624 1208.09 244.654 1211.38 244.654C1214.68 244.654 1214.69 244.644 1217.48 235.404C1219.03 230.314 1220.56 225.704 1220.89 225.154C1221.23 224.604 1221.72 228.884 1222 234.654L1222.5 245.154H1228.5L1229.05 215.654H1223.5C1219.89 215.654 1217.82 216.094 1217.6 216.904C1216.7 220.254 1212.61 232.324 1211.95 233.614C1211.45 234.564 1210.17 231.774 1208.25 225.614L1205.32 216.154L1199.66 215.854L1194 215.554V229.934C1194 237.844 1194.32 244.644 1194.71 245.034C1195.1 245.424 1196.57 245.614 1197.96 245.454L1200.5 245.154ZM1180.5 245.154L1181.06 220.654H1185.6C1189.74 220.654 1190.11 220.454 1189.82 218.404C1189.51 216.234 1189.08 216.144 1177.75 215.874L1166 215.594V218.124C1166 220.414 1166.39 220.654 1170 220.654H1174V232.484C1174 238.994 1174.32 244.644 1174.71 245.034C1175.1 245.424 1176.57 245.614 1177.96 245.454L1180.5 245.154Z" fill="#D20906"/>
<path fill-rule="evenodd" clip-rule="evenodd" d="M40.28 135.904L40.02 164.654H0.0499878V71.7239L72.3 71.4439L144.55 71.1539L149.55 68.6539C155.73 65.5639 158.05 61.4439 158.05 53.5539C158.05 44.3339 152.87 38.4939 143.05 36.6239C139.51 35.9539 113.12 35.6339 69.05 35.7239L0.549988 35.8639L0.279999 18.2639L0 0.653938L75.78 0.693931C117.45 0.723931 153.35 1.14393 155.55 1.63393C164.69 3.66393 167.68 4.67393 173.93 7.83393C181.83 11.8339 190.06 19.7739 193.69 26.9139C196.81 33.0439 199.99 46.1039 200.02 52.9539C200.09 64.4439 194.51 79.8139 187.45 87.6339C183.12 92.424 174.65 98.1539 168.57 100.414C166.08 101.334 164.05 102.404 164.05 102.794C164.05 104.304 197.7 159.654 198.61 159.654C198.78 159.654 201.73 155.714 205.18 150.904C208.62 146.094 212.88 140.354 214.64 138.154C216.4 135.954 220.25 130.734 223.2 126.544C228.58 118.894 239.43 104.144 250.55 89.3339C253.85 84.9439 257.22 80.4039 258.05 79.2639C282.21 45.6739 302.61 19.2539 308.83 13.5039C315.25 7.57394 318 5.88393 327.05 2.33393C334.67 -0.656069 355.55 -0.806064 364.55 2.07394C382.05 7.65394 390.86 15.9539 397.84 33.4139L400.54 40.1539L401.16 164.654H362.05V126.654L332.3 126.534L328.354 126.519C302.499 126.425 300.276 126.417 299.99 125.654C299.957 125.572 299.945 125.477 299.93 125.369C299.927 125.345 299.924 125.32 299.92 125.294C299.83 124.824 305.49 116.834 312.49 107.544L325.21 90.6539H362.15L361.85 67.074L361.55 43.4939L357.97 40.2139C355.46 37.9139 352.97 36.7139 349.68 36.2239C341.35 34.9739 339.45 36.6139 321.85 60.1539C313.22 71.7039 304.1 83.8539 301.6 87.1539C299.09 90.4539 290.89 101.484 283.37 111.654C275.85 121.824 263.9 137.924 256.8 147.414L243.9 164.674L199.27 164.414L154.63 164.154L148.19 153.654C144.65 147.884 139.29 139.104 136.27 134.154C133.26 129.204 129.56 123.354 128.06 121.154C126.55 118.954 124.12 114.784 122.66 111.894L120 106.634L80.28 106.894L40.55 107.154L40.28 135.904ZM693.55 99.1539L693.02 164.654H673.2C662.3 164.654 653.08 164.354 652.72 163.984C651.87 163.144 651.85 12.9539 652.7 5.90394L653.33 0.653938H693.02L693.55 62.1539L708.72 62.4339L723.89 62.7039L729.22 56.4939C732.15 53.0839 736.6 48.0039 739.1 45.2239C741.61 42.4339 745.88 37.4539 748.6 34.1639C753.98 27.6439 765.62 14.2539 773.18 5.88393L777.94 0.613945L802.02 0.883934L826.1 1.15394L815.32 13.7839C809.4 20.7239 799.83 31.8839 794.05 38.5739C770.92 65.3739 765.79 71.3239 762.37 75.4039L758.81 79.6539L764.22 85.9039C767.19 89.3439 772.08 95.3039 775.09 99.1539C780.4 105.964 789.62 117.404 814.8 148.424C821.54 156.724 827.05 163.764 827.05 164.084C827.05 164.394 816.1 164.654 802.71 164.654H778.37L767.93 151.904C762.19 144.894 754.5 135.324 750.84 130.654C747.19 125.984 739.96 116.984 734.79 110.654L725.39 99.1539H693.55ZM822.56 161.944C823.59 160.994 824.14 161.054 825.11 162.224C826.64 164.074 826.16 164.494 823.4 163.744C821.66 163.264 821.5 162.924 822.56 161.944ZM625.05 164.654V127.804L495.55 127.084L489.55 124.704C480.81 121.234 473.79 113.754 470.99 104.894C468.4 96.7139 467.38 79.3839 468.86 68.8839C470.75 55.534 477.33 46.1039 488.3 41.0439L494.55 38.1539L625.09 37.5939L624.55 1.15394H485.55L475.05 4.41393C446.28 13.3439 429.94 36.1639 427.07 71.4439C426.51 78.3239 426.5 86.8839 427.05 93.1239C429.82 124.684 442 145.314 464.16 156.004C472.86 160.204 481.24 162.924 488.55 163.944C490.2 164.164 521.59 164.424 558.3 164.504L625.05 164.654Z" fill="#D20906"/>
</svg>
