<svg width="1231" height="382" viewBox="0 0 1231 382" fill="none" xmlns="http://www.w3.org/2000/svg">
<path d="M1156.76 290.904L1156.5 381.154L578.92 381.404C261.25 381.544 1.03 381.354 0.669998 380.984C0.299998 380.624 0 339.894 0 290.484V200.654H1157.01L1156.76 290.904ZM559.72 359.044C560.12 359.434 588.58 359.604 622.97 359.414C683.5 359.074 685.72 358.994 692.5 356.914C717.22 349.354 730.65 337.174 738.36 315.304C742.24 304.304 742.92 287.744 740.06 273.874C734.79 248.344 719.91 232.404 693.97 224.514C686.59 222.264 685.7 222.234 623.38 221.894L560.26 221.554L559.64 223.854C558.77 227.114 558.85 358.164 559.72 359.044ZM962 221.654V359.704L995.5 359.154L996 336.154C996.28 323.504 996.86 312.594 997.31 311.904C997.93 310.944 1005.54 310.654 1029.81 310.674C1047.24 310.674 1061.97 311.014 1062.55 311.424C1063.12 311.824 1066.62 317.324 1070.33 323.654C1074.04 329.984 1080.38 340.554 1084.41 347.154L1091.76 359.154L1109.59 359.424C1119.41 359.574 1128.05 359.464 1128.8 359.174C1129.87 358.764 1129.64 357.734 1127.73 354.404C1121.49 343.504 1117.74 337.204 1110.35 325.154C1101.55 310.804 1100.89 309.444 1101.84 307.924C1102.2 307.344 1105.36 305.194 1108.86 303.154C1117.21 298.264 1122.3 292.884 1126.24 284.774C1129.32 278.424 1129.45 277.654 1129.42 266.154C1129.4 257.254 1128.95 252.994 1127.67 249.654C1124.92 242.484 1119.4 235.254 1113.74 231.414C1110.54 229.254 1108.13 227.564 1105.53 226.254C1096.43 221.684 1085.03 221.684 1029.98 221.674L1025.75 221.664L962 221.654ZM812.5 358.974C813.6 359.224 841.32 359.474 874.11 359.534L933.71 359.654L934.25 346.404C934.55 339.114 934.39 332.384 933.89 331.454C933.05 329.884 928.49 329.724 876.17 329.454L819.35 329.154L813.43 326.134C806.17 322.424 801 315.574 801 309.644C801 307.124 801.53 305.664 802.58 305.264C803.45 304.924 829.33 304.654 860.08 304.654C896.65 304.654 916.02 304.304 916.07 303.654C916.11 303.104 916.14 297.484 916.14 291.154C916.14 284.824 916.11 278.754 916.07 277.654C916 275.684 915.3 275.654 860.75 275.644C830.36 275.634 804.52 275.364 803.32 275.044C802.12 274.724 800.9 273.844 800.62 273.094C799.6 270.444 803.1 262.974 807.28 258.874C808.67 257.514 809.75 256.414 810.99 255.524C816.32 251.654 824.46 251.654 871.62 251.644H874.88C904.92 251.634 930.54 251.344 931.81 251.004C934.09 250.394 934.12 250.214 933.92 237.274C933.81 230.054 933.28 223.594 932.74 222.904C931.18 220.914 818.77 221.144 810.26 223.154C798.95 225.824 786.65 232.484 780.72 239.154C773.78 246.964 767.96 257.954 765.89 267.154C763.87 276.104 764.17 306.134 766.37 315.154C769.99 330.034 778.39 342.714 789.27 349.754C794.25 352.964 805.35 357.374 812.5 358.974ZM308 359.654C318.25 360.584 410.42 360.624 422.5 359.694C435.95 358.664 444.87 356.214 451.32 351.774C456.7 348.074 462.32 341.904 464.88 336.894C467.65 331.454 469.27 321.364 468.51 314.224C466.51 295.364 458.65 284.974 441.71 278.794L434.5 276.174L389 275.654C339.81 275.084 338.41 274.934 334.63 269.534C332.74 266.834 332.5 260.844 334.14 257.254C336.65 251.744 336.73 251.744 400.1 251.284C432.22 251.054 458.61 250.814 458.75 250.754C458.89 250.704 459 244.134 459 236.154V221.654L410.25 221.514C333.68 221.304 332.72 221.364 320.8 226.554C302.58 234.494 294 254.414 299.56 275.864C302.46 287.064 307.6 292.954 319.5 298.714C330.31 303.944 337.02 304.564 383.78 304.634C424.96 304.704 426.51 304.904 431.61 310.964C433.78 313.544 434.13 314.774 433.73 318.354C433.15 323.484 431.95 325.094 426.57 327.974C422.55 330.124 421.74 330.164 362.5 330.654L302.5 331.154V359.154L308 359.654ZM93.46 358.404C93.82 359.334 98.16 359.654 110.46 359.654H126.98L127.24 310.014C127.48 263.514 127.61 260.304 129.29 259.264C130.81 258.324 131.82 258.934 135.79 263.174C144.18 272.124 177.26 308.804 188.99 322.154C221.17 358.794 223.04 359.864 253.58 359.424L272.5 359.154V222.154H238.5L238 272.654C237.54 319.004 237.36 323.154 235.83 323.154C234.91 323.154 229.51 317.934 223.83 311.564C155.55 234.924 151.18 230.334 141.95 225.524L135.5 222.154H93.5L93.24 289.654C93.1 326.774 93.2 357.714 93.46 358.404ZM672.68 328.584C661.4 330.124 596.76 330.014 595.2 328.454C594.31 327.564 594 317.654 594 290.064C594 257.064 594.18 252.804 595.58 252.264C596.45 251.924 614.36 251.654 635.37 251.654C678.44 251.654 681.6 252.044 690.96 258.424C702.05 266.004 706.53 275.644 706.39 291.654C706.32 299.994 705.94 301.954 703.32 307.654C697.87 319.474 687.49 326.564 672.68 328.584ZM38.75 359.904C44.66 360.084 50.91 360.324 52.62 360.444C54.34 360.554 57.16 360.374 58.88 360.034L62 359.404V221.654H28V359.584L38.75 359.904ZM494.5 222.154L493.99 359.654H528.01L527.5 222.154H494.5ZM1085.78 279.194C1081.94 280.794 1077.49 280.984 1042.5 281.064L1039.66 281.074C1002.3 281.154 997.93 281.164 996.94 279.344C996.79 279.064 996.72 278.734 996.62 278.344C995.66 274.764 995.92 256.994 996.98 254.224L997.95 251.654L1040.23 251.674C1079.55 251.694 1082.79 251.834 1086.67 253.594C1091.59 255.824 1093.98 259.084 1094.71 264.564C1095.49 270.334 1091.54 276.794 1085.78 279.194Z" fill="white"/>
<path d="M559.72 359.044C558.85 358.164 558.77 227.114 559.64 223.854L560.26 221.554L623.38 221.894C685.7 222.234 686.59 222.264 693.97 224.514C719.91 232.404 734.79 248.344 740.06 273.874C742.92 287.744 742.24 304.304 738.36 315.304C730.65 337.174 717.22 349.354 692.5 356.914C685.72 358.994 683.5 359.074 622.97 359.414C588.58 359.604 560.12 359.434 559.72 359.044ZM962 221.654L1025.75 221.664L1029.98 221.674C1085.03 221.684 1096.43 221.684 1105.53 226.254C1108.13 227.564 1110.54 229.254 1113.74 231.414C1119.4 235.254 1124.92 242.484 1127.67 249.654C1128.95 252.994 1129.4 257.254 1129.42 266.154C1129.45 277.654 1129.32 278.424 1126.24 284.774C1122.3 292.884 1117.21 298.264 1108.86 303.154C1105.36 305.194 1102.2 307.344 1101.84 307.924C1100.89 309.444 1101.55 310.804 1110.35 325.154C1117.74 337.204 1121.49 343.504 1127.73 354.404C1129.64 357.734 1129.87 358.764 1128.8 359.174C1128.05 359.464 1119.41 359.574 1109.59 359.424L1091.76 359.154L1084.41 347.154C1080.38 340.554 1074.04 329.984 1070.33 323.654C1066.62 317.324 1063.12 311.824 1062.55 311.424C1061.97 311.014 1047.24 310.674 1029.81 310.674C1005.54 310.654 997.93 310.944 997.31 311.904C996.86 312.594 996.28 323.504 996 336.154L995.5 359.154L962 359.704V221.654ZM812.5 358.974C805.35 357.374 794.25 352.964 789.27 349.754C778.39 342.714 769.99 330.034 766.37 315.154C764.17 306.134 763.87 276.104 765.89 267.154C767.96 257.954 773.78 246.964 780.72 239.154C786.65 232.484 798.95 225.824 810.26 223.154C818.77 221.144 931.18 220.914 932.74 222.904C933.28 223.594 933.81 230.054 933.92 237.274C934.12 250.214 934.09 250.394 931.81 251.004C930.54 251.344 904.92 251.634 874.88 251.644H871.62C824.46 251.654 816.32 251.654 810.99 255.524C809.75 256.414 808.67 257.514 807.28 258.874C803.1 262.974 799.6 270.444 800.62 273.094C800.9 273.844 802.12 274.724 803.32 275.044C804.52 275.364 830.36 275.634 860.75 275.644C915.3 275.654 916 275.684 916.07 277.654C916.11 278.754 916.14 284.824 916.14 291.154C916.14 297.484 916.11 303.104 916.07 303.654C916.02 304.304 896.65 304.654 860.08 304.654C829.33 304.654 803.45 304.924 802.58 305.264C801.53 305.664 801 307.124 801 309.644C801 315.574 806.17 322.424 813.43 326.134L819.35 329.154L876.17 329.454C928.49 329.724 933.05 329.884 933.89 331.454C934.39 332.384 934.55 339.114 934.25 346.404L933.71 359.654L874.11 359.534C841.32 359.474 813.6 359.224 812.5 358.974ZM308 359.654L302.5 359.154V331.154L362.5 330.654C421.74 330.164 422.55 330.124 426.57 327.974C431.95 325.094 433.15 323.484 433.73 318.354C434.13 314.774 433.78 313.544 431.61 310.964C426.51 304.904 424.96 304.704 383.78 304.634C337.02 304.564 330.31 303.944 319.5 298.714C307.6 292.954 302.46 287.064 299.56 275.864C294 254.414 302.58 234.494 320.8 226.554C332.72 221.364 333.68 221.304 410.25 221.514L459 221.654V236.154C459 244.134 458.89 250.704 458.75 250.754C458.61 250.814 432.22 251.054 400.1 251.284C336.73 251.744 336.65 251.744 334.14 257.254C332.5 260.844 332.74 266.834 334.63 269.534C338.41 274.934 339.81 275.084 389 275.654L434.5 276.174L441.71 278.794C458.65 284.974 466.51 295.364 468.51 314.224C469.27 321.364 467.65 331.454 464.88 336.894C462.32 341.904 456.7 348.074 451.32 351.774C444.87 356.214 435.95 358.664 422.5 359.694C410.42 360.624 318.25 360.584 308 359.654ZM93.46 358.404C93.2 357.714 93.1 326.774 93.24 289.654L93.5 222.154H135.5L141.95 225.524C151.18 230.334 155.55 234.924 223.83 311.564C229.51 317.934 234.91 323.154 235.83 323.154C237.36 323.154 237.54 319.004 238 272.654L238.5 222.154H272.5V359.154L253.58 359.424C223.04 359.864 221.17 358.794 188.99 322.154C177.26 308.804 144.18 272.124 135.79 263.174C131.82 258.934 130.81 258.324 129.29 259.264C127.61 260.304 127.48 263.514 127.24 310.014L126.98 359.654H110.46C98.16 359.654 93.82 359.334 93.46 358.404ZM672.68 328.584C687.49 326.564 697.87 319.474 703.32 307.654C705.94 301.954 706.32 299.994 706.39 291.654C706.53 275.644 702.05 266.004 690.96 258.424C681.6 252.044 678.44 251.654 635.37 251.654C614.36 251.654 596.45 251.924 595.58 252.264C594.18 252.804 594 257.064 594 290.064C594 317.654 594.31 327.564 595.2 328.454C596.76 330.014 661.4 330.124 672.68 328.584ZM38.75 359.904L28 359.584V221.654H62V359.404L58.88 360.034C57.16 360.374 54.34 360.554 52.62 360.444C50.91 360.324 44.66 360.084 38.75 359.904ZM494.5 222.154H527.5L528.01 359.654H493.99L494.5 222.154ZM1085.78 279.194C1091.54 276.794 1095.49 270.334 1094.71 264.564C1093.98 259.084 1091.59 255.824 1086.67 253.594C1082.79 251.834 1079.55 251.694 1040.23 251.674L997.95 251.654L996.98 254.224C995.92 256.994 995.66 274.764 996.62 278.344C996.72 278.734 996.79 279.064 996.94 279.344C997.93 281.164 1002.3 281.154 1039.66 281.074L1042.5 281.064C1077.49 280.984 1081.94 280.794 1085.78 279.194Z" fill="black"/>
<path d="M1201.5 238.854L1201.15 228.984C1200.69 216.304 1202.33 216.364 1206.26 229.174C1209.07 238.324 1209.09 238.354 1212.38 238.354C1215.68 238.354 1215.69 238.344 1218.48 229.104C1220.03 224.014 1221.56 219.404 1221.89 218.854C1222.23 218.304 1222.72 222.584 1223 228.354L1223.5 238.854H1229.5L1230.05 209.354H1224.5C1220.89 209.354 1218.82 209.794 1218.6 210.604C1217.7 213.954 1213.61 226.024 1212.95 227.314C1212.45 228.264 1211.17 225.474 1209.25 219.314L1206.32 209.854L1200.66 209.554L1195 209.254V223.634C1195 231.544 1195.32 238.344 1195.71 238.734C1196.1 239.124 1197.57 239.314 1198.96 239.154L1201.5 238.854Z" fill="white"/>
<path d="M1181.5 238.854L1182.06 214.354H1186.6C1190.74 214.354 1191.11 214.154 1190.82 212.104C1190.51 209.934 1190.08 209.844 1178.75 209.574L1167 209.294V211.824C1167 214.114 1167.39 214.354 1171 214.354H1175V226.184C1175 232.694 1175.32 238.344 1175.71 238.734C1176.1 239.124 1177.57 239.314 1178.96 239.154L1181.5 238.854Z" fill="white"/>
<path d="M40.28 135.904L40.02 164.654H0.0499878V71.7239L72.3 71.4439L144.55 71.1539L149.55 68.6539C155.73 65.5639 158.05 61.4439 158.05 53.5539C158.05 44.3339 152.87 38.4939 143.05 36.6239C139.51 35.9539 113.12 35.6339 69.05 35.7239L0.549988 35.8639L0.279999 18.2639L0 0.653938L75.78 0.693931C117.45 0.723931 153.35 1.14393 155.55 1.63393C164.69 3.66393 167.68 4.67393 173.93 7.83393C181.83 11.8339 190.06 19.7739 193.69 26.9139C196.81 33.0439 199.99 46.1039 200.02 52.9539C200.09 64.4439 194.51 79.8139 187.45 87.6339C183.12 92.424 174.65 98.1539 168.57 100.414C166.08 101.334 164.05 102.404 164.05 102.794C164.05 104.304 197.7 159.654 198.61 159.654C198.78 159.654 201.73 155.714 205.18 150.904C208.62 146.094 212.88 140.354 214.64 138.154C216.4 135.954 220.25 130.734 223.2 126.544C228.58 118.894 239.43 104.144 250.55 89.3339C253.85 84.9439 257.22 80.4039 258.05 79.2639C282.21 45.6739 302.61 19.2539 308.83 13.5039C315.25 7.57394 318 5.88393 327.05 2.33393C334.67 -0.656069 355.55 -0.806064 364.55 2.07394C382.05 7.65394 390.86 15.9539 397.84 33.4139L400.54 40.1539L401.16 164.654H362.05V126.654L332.3 126.534C302.72 126.424 300.29 126.454 299.99 125.654C299.95 125.554 299.94 125.434 299.92 125.294C299.83 124.824 305.49 116.834 312.49 107.544L325.21 90.6539H362.15L361.85 67.074L361.55 43.4939L357.97 40.2139C355.46 37.9139 352.97 36.7139 349.68 36.2239C341.35 34.9739 339.45 36.6139 321.85 60.1539C313.22 71.7039 304.1 83.8539 301.6 87.1539C299.09 90.4539 290.89 101.484 283.37 111.654C275.85 121.824 263.9 137.924 256.8 147.414L243.9 164.674L199.27 164.414L154.63 164.154L148.19 153.654C144.65 147.884 139.29 139.104 136.27 134.154C133.26 129.204 129.56 123.354 128.06 121.154C126.55 118.954 124.12 114.784 122.66 111.894L120 106.634L80.28 106.894L40.55 107.154L40.28 135.904ZM625.05 127.804V164.654L558.3 164.504C521.59 164.424 490.2 164.164 488.55 163.944C481.24 162.924 472.86 160.204 464.16 156.004C442 145.314 429.82 124.684 427.05 93.1239C426.5 86.8839 426.51 78.3239 427.07 71.4439C429.94 36.1639 446.28 13.3439 475.05 4.41393L485.55 1.15394H624.55L625.09 37.5939L494.55 38.1539L488.3 41.0439C477.33 46.1039 470.75 55.534 468.86 68.8839C467.38 79.3839 468.4 96.7139 470.99 104.894C473.79 113.754 480.81 121.234 489.55 124.704L495.55 127.084L625.05 127.804ZM693.55 99.1539L693.02 164.654H673.2C662.3 164.654 653.08 164.354 652.72 163.984C651.87 163.144 651.85 12.9539 652.7 5.90394L653.33 0.653938H693.02L693.55 62.1539L708.72 62.4339L723.89 62.7039L729.22 56.4939C732.15 53.0839 736.6 48.0039 739.1 45.2239C741.61 42.4339 745.88 37.4539 748.6 34.1639C753.98 27.6439 765.62 14.2539 773.18 5.88393L777.94 0.613945L802.02 0.883934L826.1 1.15394L815.32 13.7839C809.4 20.7239 799.83 31.8839 794.05 38.5739C770.92 65.3739 765.79 71.3239 762.37 75.4039L758.81 79.6539L764.22 85.9039C767.19 89.3439 772.08 95.3039 775.09 99.1539C780.4 105.964 789.62 117.404 814.8 148.424C821.54 156.724 827.05 163.764 827.05 164.084C827.05 164.394 816.1 164.654 802.71 164.654H778.37L767.93 151.904C762.19 144.894 754.5 135.324 750.84 130.654C747.19 125.984 739.96 116.984 734.79 110.654L725.39 99.1539H693.55ZM825.11 162.224C824.14 161.054 823.59 160.994 822.56 161.944C821.5 162.924 821.66 163.264 823.4 163.744C826.16 164.494 826.64 164.074 825.11 162.224Z" fill="white"/>
</svg>
