<svg width="438" height="185" viewBox="0 0 438 185" fill="none" xmlns="http://www.w3.org/2000/svg">
<path d="M353.58 92.54L354.31 184.28H228.99L229.24 92.14L229.5 0L290.86 0.0799866C324.61 0.129987 352.37 0.30999 352.54 0.48999C352.71 0.65999 353.18 42.09 353.58 92.54ZM273.74 176.49C275.26 176.68 277.85 176.79 279.5 176.74C281.15 176.69 288.91 176.57 296.75 176.47L311 176.28V7.23999L291.25 7.51001L271.5 7.78L271.24 91.96L270.99 176.15L273.74 176.49Z" fill="white"/>
<path d="M44 119.28V181.28H0V80.28L74.75 80.24C142.55 80.2 149.96 80.03 154.42 78.49C161.4 76.06 165.01 71.29 165.71 63.54C166.39 55.99 164.85 51.23 160.47 47.38C154.09 41.79 155.55 41.89 74.75 41.53L0 41.2V2.28003L76.25 2.29004C123.27 2.29004 154.91 2.69004 158.79 3.32004C175.89 6.09004 191.8 14.24 199.23 24.03C209.93 38.13 213.45 57.1 208.94 76.32C205.21 92.19 196.96 102.47 181.59 110.39C177.14 112.69 173.35 114.68 173.18 114.83C172.67 115.24 175.83 121.07 181.01 129.28C183.62 133.4 190.15 143.98 195.53 152.78C200.91 161.58 207.04 171.34 209.15 174.48C211.27 177.61 213 180.43 213 180.74C213 181.06 201.68 181.19 187.85 181.05L162.7 180.78L145.4 151.78C135.89 135.83 127.63 121.99 127.04 121.03C126.06 119.41 122.96 119.28 84.99 119.28H44ZM273.74 176.49L270.99 176.15L271.24 91.96L271.5 7.78003L291.25 7.51004L311 7.24002V176.28L296.75 176.47C288.91 176.57 281.15 176.69 279.5 176.74C277.85 176.79 275.26 176.68 273.74 176.49ZM408.5 22.78L407.94 46.28H404.94C403.29 46.28 401.71 45.7 401.44 44.98C401.17 44.27 401.07 37.18 401.22 29.23L401.5 14.78H412.5L415.19 22.78C416.67 27.18 418.12 31.66 418.4 32.74C419.17 35.64 419.92 34.32 423.37 24.07L426.5 14.78L431.72 14.48L431.83 14.47C433.98 14.35 435.4 14.27 436.32 14.9C438.13 16.15 438.05 20.15 437.79 31.97V32.28L437.5 45.78H431.5L431.22 35.03C431.06 29.12 430.59 24.28 430.18 24.28C429.77 24.28 427.84 29.12 425.9 35.03C422.74 44.66 422.12 45.81 419.85 46.08C416.44 46.49 415.79 45.43 411.88 33.28L408.5 22.78ZM387.22 33.53L386.94 46.28H384.14C382.59 46.28 381.03 45.98 380.67 45.61C380.3 45.25 380 39.4 380 32.61V20.28H375.43C371.04 20.28 370.88 20.17 371.18 17.53C371.5 14.78 371.51 14.78 380.5 14.48C392.88 14.06 396 14.72 396 17.77C396 19.87 395.48 20.2 391.75 20.47L387.5 20.78L387.22 33.53Z" fill="#D20908"/>
</svg>
