<svg width="500" height="500" viewBox="0 0 500 500" fill="none" xmlns="http://www.w3.org/2000/svg">
<rect width="500" height="500" fill="black"/>
<path d="M478.055 250.093L479 386H316.651L316.975 249.5L317.312 113L396.802 113.118C440.525 113.193 476.487 113.459 476.707 113.726C476.927 113.978 477.536 175.354 478.055 250.093ZM374.624 374.46C376.593 374.741 379.948 374.904 382.086 374.83C384.223 374.756 394.276 374.578 404.433 374.43L422.893 374.148V123.726L397.308 124.126L371.722 124.526L371.385 249.233L371.061 373.956L374.624 374.46Z" fill="white"/>
<path d="M77.0009 289.706V381.556H20V231.93L116.837 231.871C204.67 231.812 214.269 231.56 220.047 229.278C229.09 225.678 233.766 218.612 234.673 207.131C235.554 195.946 233.559 188.894 227.885 183.191C219.62 174.909 221.511 175.058 116.837 174.524L20 174.035V116.378L118.78 116.393C179.693 116.393 220.682 116.985 225.708 117.918C247.861 122.022 268.472 134.096 278.097 148.599C291.959 169.487 296.519 197.59 290.676 226.064C285.844 249.574 275.157 264.803 255.245 276.536C249.48 279.944 244.571 282.892 244.35 283.114C243.69 283.721 247.783 292.358 254.494 304.521C257.875 310.624 266.335 326.298 273.304 339.335C280.274 352.371 288.215 366.83 290.949 371.482C293.695 376.119 295.936 380.296 295.936 380.756C295.936 381.23 281.271 381.422 263.355 381.215L230.774 380.815L208.362 337.853C196.042 314.224 185.341 293.721 184.577 292.299C183.307 289.899 179.292 289.706 130.102 289.706H77.0009ZM374.623 374.46L371.061 373.956L371.384 249.233L371.721 124.526L397.307 124.126L422.893 123.726V374.148L404.432 374.43C394.276 374.578 384.223 374.756 382.085 374.83C379.948 374.904 376.592 374.741 374.623 374.46Z" fill="#FF0100"/>
</svg>
